<svg id="Calque_1" data-name="Calque 1" xmlns="http://www.w3.org/2000/svg" viewBox="0 0 3400 1080"><defs><style>.cls-1{fill:#e8ede9;}.cls-2{fill:#303030;}</style></defs><title>Logo RVB</title><rect class="cls-1" width="3400" height="1080"/><path class="cls-2" d="M783.36,221.59V349.14Q690,271,590.19,271q-110,0-185.31,79-75.79,78.57-75.79,192.24,0,112.3,75.79,189.47T590.66,809q56.84,0,96.59-18.49a278.23,278.23,0,0,0,46-25,541.62,541.62,0,0,0,50.14-37.89V857.48q-92.43,52.23-194.09,52.22-153,0-261.1-106.75Q220.48,695.27,220.49,543.23q0-136.32,90.11-243.08,110.91-130.78,287-130.79Q693.71,169.37,783.36,221.59Z"/><path class="cls-2" d="M894.28,896.76l150.19-767.13L1289.4,684.18l253.71-554.55L1678,896.76H1567.6l-68.86-430.7L1287.55,929.57l-205.19-464-76.71,431.17Z"/><path class="cls-2" d="M1829.17,896.76V134.71L2349.53,679.1V183.23H2457.2v757l-520.36-543V896.76Z"/><path class="cls-2" d="M2664.24,183.23l197.33,494.48,200.1-494.48h117.84L2859.26,950.37,2546.39,183.23Z"/></svg>